<svg fill="none" height="48" width="142" xmlns="http://www.w3.org/2000/svg"><g fill="#1800bd"><path d="m67.8725 30.6489c-.6885.9007-1.8015 1.3511-3.3391 1.3511-1.5377 0-2.6507-.4504-3.3392-1.3511-.6655-.9245-.9983-2.3111-.9983-4.16v-.5689c0-1.8489.3328-3.2237.9983-4.1244.6885-.9245 1.8015-1.3867 3.3392-1.3867 1.5376 0 2.6506.4622 3.3391 1.3867.6885.9007 1.0327 2.2755 1.0327 4.1244v.5689c0 1.8489-.3442 3.2355-1.0327 4.16z"/><path clip-rule="evenodd" d="m142 0h-119.5167l-22.4833 48h119.517zm-107.3004 9.84889h-4.7161v25.70671h4.7161zm8.1696 0h-4.7161v4.62221h4.7161zm0 7.00441h-4.7161v18.7023h4.7161zm1.388 3.9823h2.5818v14.72h4.7161v-14.72h3.2015v-3.9823h-3.2015v-1.7777c0-1.0193.4935-1.5289 1.4803-1.5289h1.7212v-3.4134c-.3901-.14219-.8721-.27256-1.4458-.39108-.5738-.11852-1.1016-.17778-1.5835-.17778-1.7442 0-2.9949.49776-3.7523 1.49336-.7573.9718-1.136 2.1926-1.136 3.6622v2.1333h-2.5818zm13.3569 12.7644c1.5146 1.5881 3.8211 2.3822 6.9193 2.3822 3.0981 0 5.4046-.7941 6.9192-2.3822 1.5376-1.5881 2.3065-4.0533 2.3065-7.3956 0-3.3422-.7689-5.8074-2.3065-7.3955-1.5146-1.5882-3.8211-2.3822-6.9192-2.3822-3.0982 0-5.4047.794-6.9193 2.3822-1.5147 1.5881-2.272 4.0533-2.272 7.3955 0 3.3423.7573 5.8075 2.272 7.3956zm22.5591-16.7467h-4.0276v18.7023h4.7161v-9.0312c0-1.754.3443-3.0577 1.0328-3.9111.6884-.877 1.8015-1.3155 3.3391-1.3155h1.3081v-4.5511c-.5278-.2134-1.1245-.32-1.79-.32-1.0098 0-1.8245.3081-2.4441.9244-.6197.6163-1.1246 1.4578-1.5147 2.5245h-.241zm12.0028 0h-4.0276v18.7023h4.7161v-10.8089c0-1.1378.2983-2.086.895-2.8445.6197-.7822 1.3885-1.1733 2.3065-1.1733 1.7671 0 2.6506 1.1022 2.6506 3.3067v11.52h4.7164v-10.8089c0-1.1378.298-2.086.895-2.8445.596-.7822 1.354-1.1733 2.272-1.1733 1.767 0 2.65 1.1022 2.65 3.3067v11.52h4.717v-12.5512c0-2.2992-.517-3.9703-1.55-5.0133-1.009-1.043-2.375-1.5644-4.096-1.5644-2.203 0-3.993.96-5.37 2.88h-.276c-.872-1.92-2.455-2.88-4.7501-2.88-2.1114 0-3.8326.96-5.1637 2.88h-.2409z" fill-rule="evenodd"/></g></svg>